<?xml version="1.0" encoding="UTF-8" standalone="no"?>
<!DOCTYPE svg PUBLIC "-//W3C//DTD SVG 1.1//EN"
 "http://www.w3.org/Graphics/SVG/1.1/DTD/svg11.dtd">
<!-- Generated by graphviz version 2.44.1 (0)
 -->
<!-- Title: Rently Pages: 1 -->
<svg width="400pt" height="468pt"
 viewBox="0.00 0.00 399.60 467.60" xmlns="http://www.w3.org/2000/svg" xmlns:xlink="http://www.w3.org/1999/xlink">
<g id="graph0" class="graph" transform="scale(1 1) rotate(0) translate(28.8 438.8)">
<title>Rently</title>
<polygon fill="white" stroke="transparent" points="-28.8,28.8 -28.8,-438.8 370.8,-438.8 370.8,28.8 -28.8,28.8"/>
<text text-anchor="middle" x="171" y="-395.6" font-family="Arial Bold" font-size="13.00">Rently domain model</text>
<!-- m_ActiveAdmin::Comment -->
<g id="node1" class="node">
<title>m_ActiveAdmin::Comment</title>
<path fill="none" stroke="black" d="M21,-0.5C21,-0.5 141,-0.5 141,-0.5 147,-0.5 153,-6.5 153,-12.5 153,-12.5 153,-96.5 153,-96.5 153,-102.5 147,-108.5 141,-108.5 141,-108.5 21,-108.5 21,-108.5 15,-108.5 9,-102.5 9,-96.5 9,-96.5 9,-12.5 9,-12.5 9,-6.5 15,-0.5 21,-0.5"/>
<text text-anchor="start" x="15.5" y="-95.7" font-family="Arial Bold" font-size="11.00">ActiveAdmin::Comment</text>
<polyline fill="none" stroke="black" points="9,-88.5 153,-88.5 "/>
<text text-anchor="start" x="16" y="-75.5" font-family="Arial" font-size="10.00">author_id </text>
<text text-anchor="start" x="59" y="-75.5" font-family="Arial Italic" font-size="10.00" fill="#999999">integer (8)</text>
<text text-anchor="start" x="16" y="-62.5" font-family="Arial" font-size="10.00">author_type </text>
<text text-anchor="start" x="71" y="-62.5" font-family="Arial Italic" font-size="10.00" fill="#999999">string</text>
<text text-anchor="start" x="16" y="-49.5" font-family="Arial" font-size="10.00">body </text>
<text text-anchor="start" x="41" y="-49.5" font-family="Arial Italic" font-size="10.00" fill="#999999">text ∗</text>
<text text-anchor="start" x="16" y="-36.5" font-family="Arial" font-size="10.00">namespace </text>
<text text-anchor="start" x="70" y="-36.5" font-family="Arial Italic" font-size="10.00" fill="#999999">string ∗</text>
<text text-anchor="start" x="16" y="-23.5" font-family="Arial" font-size="10.00">resource_id </text>
<text text-anchor="start" x="70" y="-23.5" font-family="Arial Italic" font-size="10.00" fill="#999999">integer (8)</text>
<text text-anchor="start" x="16" y="-10.5" font-family="Arial" font-size="10.00">resource_type </text>
<text text-anchor="start" x="81" y="-10.5" font-family="Arial Italic" font-size="10.00" fill="#999999">string</text>
</g>
<!-- m_Booking -->
<g id="node2" class="node">
<title>m_Booking</title>
<path fill="none" stroke="black" d="M210,-145.5C210,-145.5 330,-145.5 330,-145.5 336,-145.5 342,-151.5 342,-157.5 342,-157.5 342,-215.5 342,-215.5 342,-221.5 336,-227.5 330,-227.5 330,-227.5 210,-227.5 210,-227.5 204,-227.5 198,-221.5 198,-215.5 198,-215.5 198,-157.5 198,-157.5 198,-151.5 204,-145.5 210,-145.5"/>
<text text-anchor="start" x="245.5" y="-214.7" font-family="Arial Bold" font-size="11.00">Booking</text>
<polyline fill="none" stroke="black" points="198,-207.5 342,-207.5 "/>
<text text-anchor="start" x="205" y="-194.5" font-family="Arial" font-size="10.00">booking_end_at </text>
<text text-anchor="start" x="277" y="-194.5" font-family="Arial Italic" font-size="10.00" fill="#999999">date ∗</text>
<text text-anchor="start" x="205" y="-181.5" font-family="Arial" font-size="10.00">booking_start_at </text>
<text text-anchor="start" x="281" y="-181.5" font-family="Arial Italic" font-size="10.00" fill="#999999">date ∗</text>
<text text-anchor="start" x="205" y="-168.5" font-family="Arial" font-size="10.00">cpf </text>
<text text-anchor="start" x="222" y="-168.5" font-family="Arial Italic" font-size="10.00" fill="#999999">string ∗</text>
<text text-anchor="start" x="205" y="-155.5" font-family="Arial" font-size="10.00">vehicle_id </text>
<text text-anchor="start" x="252" y="-155.5" font-family="Arial Italic" font-size="10.00" fill="#999999">integer (8) FK</text>
</g>
<!-- m_User -->
<g id="node3" class="node">
<title>m_User</title>
<path fill="none" stroke="black" d="M12,-264.5C12,-264.5 150,-264.5 150,-264.5 156,-264.5 162,-270.5 162,-276.5 162,-276.5 162,-360.5 162,-360.5 162,-366.5 156,-372.5 150,-372.5 150,-372.5 12,-372.5 12,-372.5 6,-372.5 0,-366.5 0,-360.5 0,-360.5 0,-276.5 0,-276.5 0,-270.5 6,-264.5 12,-264.5"/>
<text text-anchor="start" x="66.5" y="-359.7" font-family="Arial Bold" font-size="11.00">User</text>
<polyline fill="none" stroke="black" points="0,-352.5 162,-352.5 "/>
<text text-anchor="start" x="7" y="-339.5" font-family="Arial" font-size="10.00">email </text>
<text text-anchor="start" x="34" y="-339.5" font-family="Arial Italic" font-size="10.00" fill="#999999">string ∗ U</text>
<text text-anchor="start" x="7" y="-326.5" font-family="Arial" font-size="10.00">encrypted_password </text>
<text text-anchor="start" x="101" y="-326.5" font-family="Arial Italic" font-size="10.00" fill="#999999">string ∗</text>
<text text-anchor="start" x="7" y="-313.5" font-family="Arial" font-size="10.00">name </text>
<text text-anchor="start" x="35" y="-313.5" font-family="Arial Italic" font-size="10.00" fill="#999999">string ∗</text>
<text text-anchor="start" x="7" y="-300.5" font-family="Arial" font-size="10.00">remember_created_at </text>
<text text-anchor="start" x="105" y="-300.5" font-family="Arial Italic" font-size="10.00" fill="#999999">datetime</text>
<text text-anchor="start" x="7" y="-287.5" font-family="Arial" font-size="10.00">reset_password_sent_at </text>
<text text-anchor="start" x="117" y="-287.5" font-family="Arial Italic" font-size="10.00" fill="#999999">datetime</text>
<text text-anchor="start" x="7" y="-274.5" font-family="Arial" font-size="10.00">reset_password_token </text>
<text text-anchor="start" x="109" y="-274.5" font-family="Arial Italic" font-size="10.00" fill="#999999">string</text>
</g>
<!-- m_Vehicle -->
<g id="node4" class="node">
<title>m_Vehicle</title>
<path fill="none" stroke="black" d="M21,-139C21,-139 141,-139 141,-139 147,-139 153,-145 153,-151 153,-151 153,-222 153,-222 153,-228 147,-234 141,-234 141,-234 21,-234 21,-234 15,-234 9,-228 9,-222 9,-222 9,-151 9,-151 9,-145 15,-139 21,-139"/>
<text text-anchor="start" x="60" y="-221.2" font-family="Arial Bold" font-size="11.00">Vehicle</text>
<polyline fill="none" stroke="black" points="9,-214 153,-214 "/>
<text text-anchor="start" x="16" y="-200.5" font-family="Arial" font-size="10.00">brand </text>
<text text-anchor="start" x="44" y="-200.5" font-family="Arial Italic" font-size="10.00" fill="#999999">string ∗</text>
<text text-anchor="start" x="16" y="-187.5" font-family="Arial" font-size="10.00">manufacture_year </text>
<text text-anchor="start" x="98" y="-187.5" font-family="Arial Italic" font-size="10.00" fill="#999999">integer ∗</text>
<text text-anchor="start" x="16" y="-174.5" font-family="Arial" font-size="10.00">model </text>
<text text-anchor="start" x="46" y="-174.5" font-family="Arial Italic" font-size="10.00" fill="#999999">string ∗</text>
<text text-anchor="start" x="16" y="-161.5" font-family="Arial" font-size="10.00">model_year </text>
<text text-anchor="start" x="70" y="-161.5" font-family="Arial Italic" font-size="10.00" fill="#999999">integer ∗</text>
<text text-anchor="start" x="16" y="-148.5" font-family="Arial" font-size="10.00">plate </text>
<text text-anchor="start" x="41" y="-148.5" font-family="Arial Italic" font-size="10.00" fill="#999999">string ∗</text>
</g>
<!-- m_Vehicle&#45;&gt;m_Booking -->
<g id="edge1" class="edge">
<title>m_Vehicle&#45;&gt;m_Booking</title>
<path fill="none" stroke="black" d="M153.23,-186.5C164.91,-186.5 177.08,-186.5 188.96,-186.5"/>
<polygon fill="black" stroke="black" points="188.97,-189.65 197.97,-186.5 188.97,-183.35 188.97,-189.65"/>
</g>
</g>
</svg>
